<svg width="24" height="26" viewBox="0 0 24 26" fill="none" xmlns="http://www.w3.org/2000/svg">
<path d="M13 11.75C13 16.1462 11.7387 20.2487 9.55875 23.7137M5.25875 21.1637L5.32625 21.0512C7.0794 18.2662 8.00653 15.0409 8 11.75C8 10.4239 8.52678 9.15214 9.46447 8.21446C10.4021 7.27678 11.6739 6.75 13 6.75C14.3261 6.75 15.5979 7.27678 16.5355 8.21446C17.4732 9.15214 18 10.4239 18 11.75C18 13.0212 17.9125 14.2737 17.7462 15.5M15.0987 24.055C15.8703 22.5156 16.4947 20.9068 16.9637 19.25M21.7625 20.665C22.5687 17.8325 23 14.8412 23 11.75C23.0004 9.99444 22.5386 8.26971 21.6611 6.74921C20.7836 5.2287 19.5212 3.96601 18.001 3.08806C16.4807 2.21011 14.7561 1.74785 13.0006 1.74775C11.245 1.74765 9.52036 2.20972 8 3.0875M1.75 17.205C2.55 15.5562 3 13.705 3 11.75C3 9.92875 3.4875 8.22125 4.3375 6.75" stroke="#211E1D" stroke-width="2" stroke-linecap="round" stroke-linejoin="round"/>
</svg>
