<svg width="20" height="18" viewBox="0 0 20 18" fill="none" xmlns="http://www.w3.org/2000/svg">
<path d="M1.34251 3.77791C1.56866 3.23194 1.90013 2.73587 2.318 2.318C2.73586 1.90013 3.23194 1.56866 3.77791 1.34251C4.32388 1.11636 4.90905 0.999962 5.5 0.999962C6.09095 0.999962 6.67612 1.11636 7.22209 1.34251C7.76806 1.56866 8.26414 1.90013 8.682 2.318L10 3.636L11.318 2.318C12.1619 1.47408 13.3065 0.999973 14.5 0.999973C15.6935 0.999973 16.8381 1.47408 17.682 2.318C18.5259 3.16192 19 4.30652 19 5.5C19 6.69348 18.5259 7.83808 17.682 8.682L10 16.364L2.318 8.682C1.90013 8.26414 1.56866 7.76806 1.34251 7.22209C1.11636 6.67612 0.999962 6.09095 0.999962 5.5C0.999962 4.90905 1.11636 4.32388 1.34251 3.77791Z" stroke="black" stroke-width="2" stroke-linecap="round" stroke-linejoin="round"/>
</svg>
