<svg width="7" height="7" viewBox="0 0 7 7" fill="none" xmlns="http://www.w3.org/2000/svg">
<path d="M3.07205 0.795426C3.20705 0.380976 3.7934 0.380976 3.92795 0.795426L4.40945 2.27683C4.43887 2.36705 4.49605 2.44566 4.57283 2.50142C4.64961 2.55719 4.74206 2.58726 4.83695 2.58733H6.39485C6.8309 2.58733 7.0118 3.14533 6.65945 3.40183L5.39945 4.31713C5.32252 4.37294 5.26523 4.45168 5.2358 4.54206C5.20638 4.63244 5.20632 4.72982 5.23565 4.82023L5.71715 6.30163C5.85215 6.71608 5.3774 7.06123 5.02415 6.80473L3.76415 5.88943C3.68729 5.83363 3.59475 5.80358 3.49978 5.80358C3.4048 5.80358 3.31226 5.83363 3.2354 5.88943L1.9754 6.80473C1.6226 7.06123 1.1483 6.71608 1.28285 6.30163L1.76435 4.82023C1.79368 4.72982 1.79363 4.63244 1.7642 4.54206C1.73478 4.45168 1.67749 4.37294 1.60055 4.31713L0.341001 3.40228C-0.0113487 3.14578 0.170001 2.58778 0.605601 2.58778H2.16305C2.25802 2.5878 2.35057 2.55778 2.42744 2.50201C2.50431 2.44623 2.56156 2.36757 2.591 2.27728L3.0725 0.795876L3.07205 0.795426Z" fill="#4F4F4F"/>
</svg>
