<svg width="7" height="7" viewBox="0 0 7 7" fill="none" xmlns="http://www.w3.org/2000/svg">
<path d="M3.07206 0.795426C3.20706 0.380976 3.79341 0.380976 3.92796 0.795426L4.40946 2.27683C4.43887 2.36705 4.49606 2.44566 4.57284 2.50142C4.64962 2.55719 4.74206 2.58726 4.83696 2.58733H6.39486C6.83091 2.58733 7.01181 3.14533 6.65946 3.40183L5.39946 4.31713C5.32252 4.37294 5.26523 4.45168 5.23581 4.54206C5.20638 4.63244 5.20633 4.72982 5.23566 4.82023L5.71716 6.30163C5.85216 6.71608 5.37741 7.06123 5.02416 6.80473L3.76416 5.88943C3.6873 5.83363 3.59476 5.80358 3.49978 5.80358C3.4048 5.80358 3.31226 5.83363 3.23541 5.88943L1.97541 6.80473C1.62261 7.06123 1.14831 6.71608 1.28286 6.30163L1.76436 4.82023C1.79368 4.72982 1.79363 4.63244 1.76421 4.54206C1.73478 4.45168 1.67749 4.37294 1.60056 4.31713L0.341005 3.40228C-0.0113449 3.14578 0.170005 2.58778 0.605605 2.58778H2.16306C2.25803 2.5878 2.35057 2.55778 2.42744 2.50201C2.50431 2.44623 2.56156 2.36757 2.59101 2.27728L3.07251 0.795876L3.07206 0.795426Z" fill="#FDAF01"/>
</svg>
